# xmcd
# 
# Track frame offsets:
#     150
#     29217
#     83112
#     126002
#     163330
#     192082
#     232702
#     256512
#     288262
# 
# Disc length: 4175
# 
# Revision: 2
# Processed by: cddbd v1.5.2PL0 Copyright (c) Steve Scherf et al.
# Submitted via: BonkEnc v1.0.8
# 
DISCID=6f104d09
DTITLE=Trygve Seim - Sangam
DYEAR=2004
DGENRE=Contemporary Jazz
TTITLE0=Sangam
TTITLE1=Dansante
TTITLE2=Beginning An Ending
TTITLE3=Himmerland i Tidevand Part I
TTITLE4=Himmerland i Tidevand Part II
TTITLE5=Himmerland i Tidevand Part III
TTITLE6=Himmerland i Tidevand Part IV
TTITLE7=Trio
TTITLE8=Prayer
EXTD=Trygve Seim, Havard Lund,\nNils Jansen, Arve Henriksen,\nTone Reichelt, Lars Andreas Haug, Frode Halti,\nMorten Hannisdal, Per Oddvar Johansen,\n÷vind Br‰kke, Helge Sunde,\nString Ensemble (Christian Eggen conductor]\n2002+2004\nProduced by Manfred E
EXTD=ichler
EXTT0=
EXTT1=
EXTT2=
EXTT3=
EXTT4=
EXTT5=
EXTT6=
EXTT7=
EXTT8=
PLAYORDER=
